#!OML:ASF H:\Dans Jumps\Project 1\Capture day 1\Session 1\subject.ASF
:FULLY-SPECIFIED
:DEGREES
625
root 0.0890298 17.4236 -7.2489 8.97406 -1.29144 -0.96852
lowerback 4.50702 0.189479 -0.654938
upperback 5.92751 0.202818 1.36148
thorax 3.57806 0.0426015 1.76827
lowerneck -13.0357 0.328176 -1.62661
upperneck 33.804 0.878363 0.151365
head 13.5814 0.193399 0.479312
rclavicle -3.67752e-015 5.36719e-015
rhumerus -25.3972 -11.3711 -81.1731
rradius 27.2381
rwrist 27.9856
rhand -17.9972 -23.7169
rfingers 7.12502
rthumb 8.27302 -53.535
lclavicle -3.67752e-015 5.36719e-015
lhumerus -24.6109 -7.89624 90.9435
lradius 26.1521
lwrist 16.6624
lhand -26.7216 -4.37203
lfingers 7.12502
lthumb -0.151243 25.6077
rfemur -23.7764 -2.61075 19.0883
rtibia 33.2738
rfoot -16.985 -2.04535
rtoes 4.63569
lfemur -22.4798 5.88087 -17.9128
ltibia 29.746
lfoot -14.1958 5.92957
ltoes 0.752986
626
root 0.0908529 17.4235 -7.24877 8.96583 -1.29539 -0.97424
lowerback 4.49566 0.19041 -0.649412
upperback 5.93508 0.204106 1.36072
thorax 3.59231 0.0433365 1.76446
lowerneck -13.0319 0.32673 -1.62858
upperneck 33.8029 0.874286 0.158273
head 13.5801 0.192299 0.481756
rclavicle 6.85807e-015 1.43125e-014
rhumerus -25.3939 -11.3793 -81.1798
rradius 27.2463
rwrist 27.9856
rhand -17.9899 -23.7204
rfingers 7.12502
rthumb 8.2801 -53.5382
lclavicle 6.85807e-015 1.43125e-014
lhumerus -24.6075 -7.89485 90.9403
lradius 26.1543
lwrist 16.6605
lhand -26.6721 -4.30724
lfingers 7.12502
lthumb -0.103406 25.6725
rfemur -23.7639 -2.60339 19.0865
rtibia 33.2674
rfoot -16.9818 -2.04893
rtoes 4.61938
lfemur -22.4717 5.88146 -17.9123
ltibia 29.7478
lfoot -14.1972 5.93031
ltoes 0.766825
627
root 0.0926965 17.4235 -7.24862 8.9571 -1.29957 -0.981539
lowerback 4.4848 0.191477 -0.642542
upperback 5.94283 0.205583 1.36045
thorax 3.60647 0.0442075 1.7604
lowerneck -13.0271 0.324689 -1.63258
upperneck 33.8003 0.868902 0.167984
head 13.5778 0.19076 0.485459
rclavicle 1.09332e-015 -5.36719e-015
rhumerus -25.3868 -11.3941 -81.1846
rradius 27.245
rwrist 28.0001
rhand -17.9949 -23.7114
rfingers 7.12502
rthumb 8.27522 -53.5293
lclavicle 1.09332e-015 -5.36719e-015
lhumerus -24.6079 -7.88663 90.9367
lradius 26.1593
lwrist 16.6527
lhand -26.6252 -4.24125
lfingers 7.12502
lthumb -0.0580905 25.7385
rfemur -23.7494 -2.59523 19.0861
rtibia 33.2595
rfoot -16.9783 -2.05189
rtoes 4.60905
lfemur -22.4621 5.88048 -17.9096
ltibia 29.749
lfoot -14.1993 5.93177
ltoes 0.787767
628
root 0.0946526 17.4236 -7.2483 8.94698 -1.30479 -0.987642
lowerback 4.47288 0.192251 -0.63763
upperback 5.95156 0.206609 1.36069
thorax 3.62225 0.0447478 1.75797
lowerneck -13.024 0.321872 -1.63715
upperneck 33.7988 0.862593 0.177609
head 13.5764 0.188716 0.489102
rclavicle -1.98785e-015 -8.54774e-015
rhumerus -25.3763 -11.4089 -81.1871
rradius 27.236
rwrist 28.024
rhand -18.0051 -23.7005
rfingers 7.12502
rthumb 8.26539 -53.5188
lclavicle -1.98785e-015 -8.54774e-015
lhumerus -24.6085 -7.87128 90.9333
lradius 26.1646
lwrist 16.6397
lhand -26.6381 -4.27092
lfingers 7.12502
lthumb -0.0706 25.7088
rfemur -23.7323 -2.59125 19.0841
rtibia 33.2507
rfoot -16.9758 -2.05053
rtoes 4.60325
lfemur -22.4486 5.87994 -17.9086
ltibia 29.7492
lfoot -14.2022 5.93444
ltoes 0.812733
629
root 0.0966866 17.4237 -7.24783 8.93657 -1.30999 -0.991636
lowerback 4.4591 0.192291 -0.635787
upperback 5.9612 0.206589 1.36125
thorax 3.64008 0.0446173 1.75763
lowerneck -13.0318 0.319476 -1.63375
upperneck 33.8051 0.857762 0.179027
head 13.581 0.187139 0.488396
rclavicle -1.49089e-015 -1.59028e-015
rhumerus -25.3633 -11.4209 -81.1878
rradius 27.2218
rwrist 28.0501
rhand -18.0227 -23.6827
rfingers 7.12502
rthumb 8.24847 -53.5016
lclavicle -1.49089e-015 -1.59028e-015
lhumerus -24.6056 -7.85397 90.9301
lradius 26.1664
lwrist 16.6235
lhand -26.7003 -4.3767
lfingers 7.12502
lthumb -0.130632 25.603
rfemur -23.7136 -2.59099 19.0796
rtibia 33.2416
rfoot -16.9751 -2.04509
rtoes 4.606
lfemur -22.4329 5.87957 -17.9105
ltibia 29.7485
lfoot -14.2074 5.93737
ltoes 0.834661
630
root 0.0987537 17.4238 -7.2473 8.92672 -1.31523 -0.994398
lowerback 4.44493 0.191799 -0.636191
upperback 5.97025 0.205825 1.3618
thorax 3.65753 0.0440318 1.75856
lowerneck -13.0332 0.316191 -1.63424
upperneck 33.8079 0.851177 0.184359
head 13.5825 0.184863 0.489614
rclavicle -5.96354e-015 5.56597e-015
rhumerus -25.3524 -11.4277 -81.1884
rradius 27.2093
rwrist 28.0732
rhand -18.0401 -23.6685
rfingers 7.12502
rthumb 8.23161 -53.4881
lclavicle -5.96354e-015 5.56597e-015
lhumerus -24.6025 -7.83195 90.9267
lradius 26.1651
lwrist 16.6003
lhand -26.8117 -4.55434
lfingers 7.12502
lthumb -0.238211 25.4253
rfemur -23.6958 -2.59207 19.0738
rtibia 33.2328
rfoot -16.9749 -2.03938
rtoes 4.60569
lfemur -22.4169 5.88078 -17.9145
ltibia 29.7466
lfoot -14.2122 5.94224
ltoes 0.84629
631
root 0.100855 17.424 -7.24671 8.91673 -1.31951 -0.995021
lowerback 4.43317 0.190149 -0.640354
upperback 5.97689 0.203466 1.36284
thorax 3.67115 0.0425284 1.76208
lowerneck -13.0387 0.313651 -1.63002
upperneck 33.8189 0.846415 0.1841
head 13.5887 0.183145 0.48812
rclavicle -2.68359e-015 -2.98177e-015
rhumerus -25.346 -11.4294 -81.1877
rradius 27.2
rwrist 28.0892
rhand -18.054 -23.6582
rfingers 7.12502
rthumb 8.21824 -53.4784
lclavicle -2.68359e-015 -2.98177e-015
lhumerus -24.597 -7.81297 90.9239
lradius 26.1556
lwrist 16.5808
lhand -26.9578 -4.79702
lfingers 7.12502
lthumb -0.379303 25.1824
rfemur -23.6786 -2.59611 19.066
rtibia 33.2249
rfoot -16.9759 -2.03283
rtoes 4.60305
lfemur -22.4004 5.88168 -17.9212
ltibia 29.7444
lfoot -14.2161 5.94831
ltoes 0.857
632
root 0.103002 17.4241 -7.24619 8.90843 -1.32321 -0.994255
lowerback 4.42171 0.18792 -0.646138
upperback 5.98217 0.200339 1.3633
thorax 3.68322 0.0406081 1.76592
lowerneck -13.0486 0.310925 -1.62437
upperneck 33.8362 0.840879 0.184478
head 13.5985 0.181287 0.486557
rclavicle 1.88845e-015 -9.93923e-016
rhumerus -25.3414 -11.4325 -81.1868
rradius 27.1941
rwrist 28.099
rhand -18.0629 -23.6512
rfingers 7.12502
rthumb 8.20965 -53.4717
lclavicle 1.88845e-015 -9.93923e-016
lhumerus -24.5898 -7.79128 90.9203
lradius 26.1425
lwrist 16.56
lhand -27.1198 -5.06214
lfingers 7.12502
lthumb -0.535773 24.9169
rfemur -23.6643 -2.60005 19.0565
rtibia 33.2179
rfoot -16.9774 -2.02624
rtoes 4.59953
lfemur -22.3865 5.88242 -17.9305
ltibia 29.7421
lfoot -14.2184 5.95629
ltoes 0.852207
633
root 0.105119 17.4242 -7.24584 8.90225 -1.32529 -0.99428
lowerback 4.41222 0.185331 -0.651981
upperback 5.98458 0.196762 1.36368
thorax 3.6912 0.0385081 1.76968
lowerneck -13.0572 0.308748 -1.61705
upperneck 33.8574 0.835297 0.185941
head 13.6098 0.179731 0.485135
rclavicle -3.97569e-016 -2.78299e-015
rhumerus -25.3397 -11.4435 -81.1843
rradius 27.1882
rwrist 28.1106
rhand -18.0729 -23.6406
rfingers 7.12502
rthumb 8.19995 -53.4614
lclavicle -3.97569e-016 -2.78299e-015
lhumerus -24.5834 -7.77059 90.9164
lradius 26.1247
lwrist 16.5395
lhand -27.2922 -5.35254
lfingers 7.12502
lthumb -0.702299 24.626
rfemur -23.6539 -2.60301 19.0482
rtibia 33.212
rfoot -16.9772 -2.02252
rtoes 4.59212
lfemur -22.3766 5.88011 -17.9384
ltibia 29.7404
lfoot -14.2185 5.96528
ltoes 0.845935
634
root 0.107284 17.4242 -7.24548 8.89585 -1.32528 -0.994987
lowerback 4.40305 0.182578 -0.656898
upperback 5.98672 0.192985 1.36425
thorax 3.69872 0.0363461 1.77312
lowerneck -13.0753 0.306754 -1.60545
upperneck 33.8886 0.829766 0.185379
head 13.6277 0.178373 0.482256
rclavicle -6.95746e-016 -3.97569e-016
rhumerus -25.3402 -11.4627 -81.1799
rradius 27.1858
rwrist 28.1226
rhand -18.0773 -23.6341
rfingers 7.12502
rthumb 8.19577 -53.4551
lclavicle -6.95746e-016 -3.97569e-016
lhumerus -24.5763 -7.74995 90.913
lradius 26.1036
lwrist 16.5186
lhand -27.427 -5.57698
lfingers 7.12502
lthumb -0.832533 24.4011
rfemur -23.6435 -2.6063 19.0407
rtibia 33.2067
rfoot -16.9769 -2.02081
rtoes 4.57912
lfemur -22.3677 5.87425 -17.9453
ltibia 29.7398
lfoot -14.2172 5.9759
ltoes 0.836321
635
root 0.109396 17.4241 -7.24524 8.89006 -1.32421 -0.996988
lowerback 4.39497 0.180013 -0.661138
upperback 5.98794 0.189468 1.36521
thorax 3.70465 0.0343491 1.77657
lowerneck -13.0897 0.304652 -1.59672
upperneck 33.92 0.823599 0.188343
head 13.6448 0.176856 0.481172
rclavicle 8.94531e-016 3.97569e-016
rhumerus -25.3399 -11.4892 -81.1744
rradius 27.1814
rwrist 28.133
rhand -18.0877 -23.626
rfingers 7.12502
rthumb 8.1857 -53.4475
lclavicle 8.94531e-016 3.97569e-016
lhumerus -24.5702 -7.72965 90.9095
lradius 26.0822
lwrist 16.4964
lhand -27.5247 -5.72643
lfingers 7.12502
lthumb -0.926841 24.2513
rfemur -23.6338 -2.60583 19.0348
rtibia 33.2019
rfoot -16.9753 -2.02422
rtoes 4.56053
lfemur -22.3617 5.86708 -17.95
ltibia 29.741
lfoot -14.2166 5.98438
ltoes 0.828411
636
root 0.111483 17.4241 -7.24502 8.88514 -1.32379 -1.00026
lowerback 4.3861 0.178272 -0.665081
upperback 5.98856 0.187041 1.3668
thorax 3.71036 0.032898 1.78049
lowerneck -13.0928 0.301464 -1.59385
upperneck 33.9432 0.815723 0.195542
head 13.6557 0.174519 0.482454
rclavicle -3.77691e-015 1.19271e-015
rhumerus -25.341 -11.5203 -81.1676
rradius 27.178
rwrist 28.1407
rhand -18.0978 -23.6254
rfingers 7.12502
rthumb 8.17599 -53.4472
lclavicle -3.77691e-015 1.19271e-015
lhumerus -24.5677 -7.71256 90.907
lradius 26.0653
lwrist 16.4772
lhand -27.5707 -5.77668
lfingers 7.12502
lthumb -0.971323 24.2009
rfemur -23.6251 -2.60326 19.0304
rtibia 33.1968
rfoot -16.9714 -2.02948
rtoes 4.54263
lfemur -22.3573 5.86116 -17.953
ltibia 29.7435
lfoot -14.2166 5.99069
ltoes 0.826249
